<?xml version="1.0" standalone="no"?>
<!DOCTYPE svg PUBLIC "-//W3C//DTD SVG 20010904//EN"
 "http://www.w3.org/TR/2001/REC-SVG-20010904/DTD/svg10.dtd">
<svg version="1.0" xmlns="http://www.w3.org/2000/svg"
 width="388.000000pt" height="388.000000pt" viewBox="0 0 388.000000 388.000000"
 preserveAspectRatio="xMidYMid meet">
<metadata>
Created by potrace 1.14, written by Peter Selinger 2001-2017
</metadata>
<g transform="translate(0.000000,388.000000) scale(0.100000,-0.100000)"
fill="#000000" stroke="none">
<path d="M1598 3476 c-63 -24 -83 -50 -82 -104 1 -61 8 -92 40 -177 65 -175
64 -169 50 -189 -7 -11 -30 -25 -51 -33 -61 -21 -68 -30 -63 -91 5 -61 31 -94
75 -99 15 -1 37 -4 48 -7 11 -2 37 -5 58 -5 30 -1 39 -6 46 -23 8 -21 3 -26
-49 -49 -65 -30 -73 -43 -59 -93 10 -37 56 -89 71 -80 4 3 8 1 8 -4 0 -6 -19
-17 -42 -24 -41 -14 -44 -14 -67 8 -29 28 -214 121 -256 129 -83 17 -162 17
-193 1 -44 -23 -55 -50 -54 -131 0 -38 -4 -82 -9 -96 -12 -31 -61 -55 -132
-64 -64 -8 -99 -39 -102 -91 -1 -21 2 -50 7 -64 6 -14 12 -46 15 -72 5 -43 3
-47 -23 -61 -16 -8 -41 -17 -57 -21 -43 -10 -67 -41 -67 -83 0 -65 41 -173 92
-246 19 -26 19 -29 3 -78 -9 -27 -18 -55 -20 -62 -17 -75 -12 -69 -136 -134
l-120 -61 -72 61 c-40 34 -79 68 -87 77 -8 8 -22 20 -31 25 -8 6 -37 25 -64
43 -85 56 -182 84 -230 66 -41 -16 -57 -125 -25 -184 6 -11 8 -20 4 -20 -3 0
-1 -7 6 -15 7 -8 10 -15 7 -15 -3 0 6 -21 20 -47 98 -183 103 -200 108 -337 5
-174 65 -310 133 -300 6 1 18 2 25 3 44 4 159 165 170 239 5 33 11 34 68 12
29 -12 119 -37 199 -57 169 -41 195 -57 185 -113 -16 -84 -3 -134 42 -158 22
-12 126 -8 171 6 28 9 40 7 92 -19 76 -38 187 -80 273 -105 55 -15 72 -25 88
-50 27 -45 83 -55 199 -38 67 9 78 9 160 -1 83 -10 566 -12 645 -3 65 8 128
18 160 25 11 2 31 5 45 8 44 7 198 45 239 60 30 10 49 11 73 4 49 -15 158 -19
202 -8 75 20 116 93 85 151 -10 18 -5 27 38 67 62 59 113 123 147 186 35 66
76 197 83 263 3 29 6 61 8 70 2 9 4 36 4 60 1 29 5 42 15 42 24 0 44 27 39 52
-4 21 -1 23 36 24 45 0 46 1 55 30 8 26 -25 63 -65 71 -29 6 -39 26 -18 39 6
3 9 19 7 35 -3 21 0 30 13 34 24 8 29 36 11 58 -8 9 -11 17 -6 18 56 4 84 25
84 61 0 23 -53 47 -92 42 -27 -3 -28 -2 -22 35 5 33 3 41 -17 55 -17 12 -19
16 -7 16 15 0 28 19 28 41 0 5 -9 18 -19 28 -19 19 -19 19 10 31 32 14 48 52
30 74 -17 21 -55 25 -91 9 -18 -7 -33 -13 -35 -13 -1 0 -2 14 -3 32 -1 34 -15
48 -48 48 -29 0 -45 -22 -51 -67 -7 -50 -13 -55 -13 -10 0 66 -71 85 -92 25
l-11 -30 -79 87 c-111 119 -234 213 -373 286 -67 35 -72 39 -110 115 -64 124
-110 244 -131 336 -2 10 -6 28 -9 41 -16 67 -19 99 -19 172 0 44 3 105 6 135
6 62 -4 90 -50 133 -35 34 -100 54 -162 52 -46 -2 -103 -25 -116 -46 -7 -13
-7 -91 1 -129 3 -14 8 -36 10 -50 2 -14 9 -49 14 -79 23 -113 15 -132 -58
-136 -43 -2 -61 -26 -61 -81 0 -52 12 -65 87 -93 32 -13 68 -27 81 -32 14 -5
22 -17 22 -31 0 -20 -5 -23 -45 -24 -61 -2 -78 -18 -72 -66 2 -21 10 -45 17
-53 11 -13 0 -15 -91 -16 -57 -1 -119 -2 -138 -3 -30 -1 -39 5 -62 39 -71 104
-163 311 -195 440 -13 53 -13 58 -19 158 -8 137 -21 163 -95 202 -45 23 -145
29 -192 11z m2082 -1541 c17 10 11 -4 -16 -43 -22 -33 -24 -34 -19 -10 4 14 1
36 -5 48 -11 20 -10 21 9 10 12 -6 26 -8 31 -5z m9 -264 c8 -14 7 -22 -4 -31
-13 -11 -15 -8 -15 19 0 36 5 39 19 12z"/>
</g>
</svg>
